<?xml version="1.0" encoding="UTF-8" standalone="no"?>
<!-- Created with Inkscape (http://www.inkscape.org/) -->

<svg
   xmlns:dc="http://purl.org/dc/elements/1.1/"
   xmlns:cc="http://creativecommons.org/ns#"
   xmlns:rdf="http://www.w3.org/1999/02/22-rdf-syntax-ns#"
   xmlns:svg="http://www.w3.org/2000/svg"
   xmlns="http://www.w3.org/2000/svg"
   xmlns:sodipodi="http://sodipodi.sourceforge.net/DTD/sodipodi-0.dtd"
   xmlns:inkscape="http://www.inkscape.org/namespaces/inkscape"
   width="210mm"
   height="297mm"
   viewBox="0 0 744.09448819 1052.3622047"
   id="svg3652"
   version="1.1"
   inkscape:version="0.91 r13725"
   sodipodi:docname="dknog-march-2019.svg">
  <defs
     id="defs3654">
    <clipPath
       clipPathUnits="userSpaceOnUse"
       id="clipPath3546">
      <path
         d="m 0,595.28 841.89,0 L 841.89,0 0,0 0,595.28 Z"
         id="path3548"
         inkscape:connector-curvature="0" />
    </clipPath>
  </defs>
  <sodipodi:namedview
     id="base"
     pagecolor="#ffffff"
     bordercolor="#666666"
     borderopacity="1.0"
     inkscape:pageopacity="0.0"
     inkscape:pageshadow="2"
     inkscape:zoom="2.8"
     inkscape:cx="349.88783"
     inkscape:cy="711.3591"
     inkscape:document-units="px"
     inkscape:current-layer="text3732"
     showgrid="false"
     inkscape:window-width="1920"
     inkscape:window-height="1135"
     inkscape:window-x="1200"
     inkscape:window-y="512"
     inkscape:window-maximized="1" />
  <metadata
     id="metadata3657">
    <rdf:RDF>
      <cc:Work
         rdf:about="">
        <dc:format>image/svg+xml</dc:format>
        <dc:type
           rdf:resource="http://purl.org/dc/dcmitype/StillImage" />
        <dc:title></dc:title>
      </cc:Work>
    </rdf:RDF>
  </metadata>
  <g
     inkscape:label="Layer 1"
     inkscape:groupmode="layer"
     id="layer1">
    <g
       transform="matrix(1.25,0,0,-1.25,188.97996,738.86032)"
       id="g3542">
      <g
         id="g3544"
         clip-path="url(#clipPath3546)">
        <g
           id="g3550"
           transform="translate(84.8403,364.4424)">
          <path
             d="m 0,0 c 0,0.339 -0.227,0.623 -0.566,0.736 -0.793,0.283 -5.661,1.868 -6.284,1.868 -0.339,0 -0.566,-0.227 -0.566,-0.566 l 0,-12.341 c 0,-0.34 0.227,-0.566 0.566,-0.566 0.623,0 5.491,1.585 6.284,1.868 C -0.227,-8.888 0,-8.605 0,-8.265 L 0,0 Z m -15.228,3.962 c 0,3.453 2.151,5.888 5.887,5.888 2.095,0 6.907,-1.472 9.341,-2.435 l 0,12.738 7.812,1.359 0,-39.061 -7.529,0 0,1.981 c -2.378,-0.962 -7.472,-2.547 -9.624,-2.547 -3.736,0 -5.887,2.434 -5.887,5.887 l 0,16.19 z"
             style="fill:#bf1e2d;fill-opacity:1;fill-rule:nonzero;stroke:none"
             id="path3552"
             inkscape:connector-curvature="0" />
        </g>
        <g
           id="g3554"
           transform="translate(112.0664,360.3662)">
          <path
             d="m 0,0 7.359,-13.473 -8.661,0 -6.68,12.624 0,-12.624 -7.812,0 0,37.702 7.812,1.359 0,-24.682 6.793,12.454 8.322,0 L 0,0 Z"
             style="fill:#bf1e2d;fill-opacity:1;fill-rule:nonzero;stroke:none"
             id="path3556"
             inkscape:connector-curvature="0" />
        </g>
        <g
           id="g3558"
           transform="translate(120.1021,346.8931)">
          <path
             d="m 0,0 0,26.833 7.529,0 0,-1.981 c 2.378,0.962 7.359,2.547 9.511,2.547 3.736,0 5.887,-2.434 5.887,-5.887 l 0,-21.512 -7.812,0 0,18.908 c 0,0.34 -0.227,0.566 -0.566,0.566 -0.623,0 -5.378,-1.585 -6.171,-1.868 C 8.038,17.493 7.812,17.21 7.812,16.87 L 7.812,0 0,0 Z"
             style="fill:#414142;fill-opacity:1;fill-rule:nonzero;stroke:none"
             id="path3560"
             inkscape:connector-curvature="0" />
        </g>
        <g
           id="g3562"
           transform="translate(160.9717,366.5933)">
          <path
             d="m 0,0 -6.794,0 c -0.339,0 -0.565,-0.227 -0.565,-0.566 l 0,-11.435 c 0,-0.34 0.226,-0.566 0.565,-0.566 l 6.794,0 c 0.339,0 0.566,0.226 0.566,0.566 l 0,11.435 C 0.566,-0.227 0.339,0 0,0 m 8.378,-13.813 c 0,-3.227 -2.66,-5.887 -5.887,-5.887 l -11.775,0 c -3.227,0 -5.887,2.66 -5.887,5.887 l 0,15.059 c 0,3.226 2.66,5.887 5.887,5.887 l 11.775,0 c 3.227,0 5.887,-2.661 5.887,-5.887 l 0,-15.059 z"
             style="fill:#414142;fill-opacity:1;fill-rule:nonzero;stroke:none"
             id="path3564"
             inkscape:connector-curvature="0" />
        </g>
        <g
           id="g3566"
           transform="translate(187.0649,364.4424)">
          <path
             d="m 0,0 c 0,0.339 -0.227,0.623 -0.566,0.736 -0.793,0.283 -5.774,1.868 -6.397,1.868 -0.34,0 -0.566,-0.227 -0.566,-0.566 l 0,-11.209 c 0,-0.34 0.226,-0.566 0.566,-0.566 0.623,0 5.604,1.585 6.397,1.868 C -0.227,-7.756 0,-7.473 0,-7.133 L 0,0 Z m -12.567,-21.908 12.001,0 c 0.283,0 0.509,0.17 0.566,0.452 l 0,6.907 c -2.434,-0.962 -7.246,-2.434 -9.341,-2.434 -3.736,0 -5.887,2.434 -5.887,5.887 l 0,15.058 c 0,3.453 2.151,5.888 5.887,5.888 2.152,0 7.246,-1.585 9.624,-2.547 l 0,1.981 7.529,0 0,-31.702 c 0,-3.227 -2.661,-5.887 -5.887,-5.887 l -14.492,0 0,6.397 z"
             style="fill:#414142;fill-opacity:1;fill-rule:nonzero;stroke:none"
             id="path3568"
             inkscape:connector-curvature="0" />
        </g>
        <g
           id="g3606"
           transform="translate(69.667,339.3081)">
          <path
             d="m 0,0 c 0,0 6.359,0.205 15.898,0.512 4.77,0.144 10.334,0.322 16.296,0.447 5.962,0.141 12.322,0.291 18.68,0.441 3.18,0.092 6.359,0.183 9.49,0.274 3.13,0.111 6.21,0.192 9.191,0.209 C 72.536,1.879 75.417,1.844 78.15,1.734 79.517,1.686 80.846,1.639 82.131,1.593 83.416,1.525 84.658,1.461 85.851,1.4 88.235,1.277 90.422,1.113 92.359,0.969 94.297,0.814 95.986,0.664 97.377,0.518 100.159,0.234 101.749,0 101.749,0 l 0,-0.4 c 0,0 -1.59,-0.235 -4.372,-0.518 -1.391,-0.146 -3.08,-0.297 -5.018,-0.451 -1.937,-0.145 -4.124,-0.309 -6.508,-0.432 -1.193,-0.06 -2.435,-0.125 -3.72,-0.192 -1.285,-0.046 -2.614,-0.093 -3.981,-0.142 -2.733,-0.109 -5.614,-0.144 -8.595,-0.148 -2.981,0.016 -6.061,0.097 -9.191,0.209 -3.131,0.091 -6.31,0.181 -9.49,0.273 C 44.516,-1.65 38.156,-1.5 32.194,-1.359 26.232,-1.234 20.668,-1.057 15.898,-0.912 6.359,-0.605 0,-0.4 0,-0.4 L 0,0 Z"
             style="fill:#414142;fill-opacity:1;fill-rule:nonzero;stroke:none"
             id="path3608"
             inkscape:connector-curvature="0" />
        </g>
        <g
           transform="scale(1.0320649,-0.96893133)"
           style="font-style:normal;font-weight:normal;font-size:36.90346527px;line-height:125%;font-family:sans-serif;letter-spacing:0px;word-spacing:0px;fill:#414142;fill-opacity:1;stroke:none;stroke-width:1px;stroke-linecap:butt;stroke-linejoin:miter;stroke-opacity:1"
           id="text3732">
          <path
             d="m 76.327422,-332.77292 2.5325,0 2.20037,-5.12728 0,7.26537 2.906148,0 0,-13.82496 -2.906148,0 -3.46662,8.28252 -3.46662,-8.28252 -2.906148,0 0,13.82496 2.906148,0 0,-7.26537 2.20037,5.12728 z"
             style="font-style:normal;font-variant:normal;font-weight:900;font-stretch:normal;font-size:20.7582016px;font-family:'StratumNo2 Black';-inkscape-font-specification:'StratumNo2 Black, Heavy';fill:#414142;fill-opacity:1"
             id="path4537" />
          <path
             d="m 86.559269,-332.5861 c 0,1.26625 0.788812,2.15886 2.158853,2.15886 0.788812,0 2.449468,-0.33214 3.321313,-0.68503 l 0,0.47744 2.76084,0 0,-7.68053 c 0,-1.18322 -0.975635,-2.15885 -2.158853,-2.15885 l -3.798751,0 c -1.183217,0 -2.158852,0.97563 -2.158852,2.15885 l 0,0.99639 2.698566,0 0,-0.43592 c 0,-0.12455 0.08303,-0.20758 0.207582,-0.20758 l 2.138094,0 c 0.12455,0 0.207583,0.083 0.207583,0.20758 l 0,1.80596 c -1.120943,-0.20758 -2.449468,-0.35289 -3.217522,-0.35289 -1.370041,0 -2.158853,0.89261 -2.158853,2.15886 l 0,1.55686 z m 5.376375,-0.70578 c 0,0.14531 -0.08303,0.22834 -0.207583,0.26986 -0.290614,0.10379 -1.930512,0.43592 -2.158852,0.43592 -0.12455,0 -0.207582,-0.083 -0.207582,-0.20758 l 0,-1.26625 c 0,-0.12455 0.08303,-0.20758 0.207582,-0.20758 0.22834,0 1.411557,0.0623 2.158852,0.14531 0.12455,0.0208 0.207583,0.10379 0.207583,0.26985 l 0,0.56047 z"
             style="font-style:normal;font-variant:normal;font-weight:900;font-stretch:normal;font-size:20.7582016px;font-family:'StratumNo2 Black';-inkscape-font-specification:'StratumNo2 Black, Heavy';fill:#414142;fill-opacity:1"
             id="path4539" />
          <path
             d="m 102.89013,-340.6818 c -0.78881,0.31138 -2.05506,0.89261 -2.74008,1.26625 l 0,-1.05866 -2.760838,0 0,9.83938 2.864628,0 0,-5.58395 c 0,-0.18683 0.10379,-0.26986 0.20759,-0.33213 0.22834,-0.14531 1.61914,-0.93412 2.57401,-1.3908 l -0.14531,-2.74009 z"
             style="font-style:normal;font-variant:normal;font-weight:900;font-stretch:normal;font-size:20.7582016px;font-family:'StratumNo2 Black';-inkscape-font-specification:'StratumNo2 Black, Heavy';fill:#414142;fill-opacity:1"
             id="path4541" />
          <path
             d="m 109.75494,-334.51661 0,1.05867 c 0,0.12455 -0.083,0.20758 -0.20759,0.20758 l -2.11733,0 c -0.12455,0 -0.20758,-0.083 -0.20758,-0.20758 l 0,-4.19316 c 0,-0.12455 0.083,-0.20758 0.20758,-0.20758 l 2.11733,0 c 0.12455,0 0.20759,0.083 0.20759,0.20758 l 0,0.91336 2.80235,0 0,-1.57762 c 0,-1.18322 -0.97563,-2.15885 -2.15885,-2.15885 l -3.88178,0 c -1.18322,0 -2.15886,0.97563 -2.15886,2.15885 l 0,5.52168 c 0,1.18322 0.97564,2.15885 2.15886,2.15885 l 3.88178,0 c 1.18322,0 2.15885,-0.97563 2.15885,-2.15885 l 0,-1.72293 -2.80235,0 z"
             style="font-style:normal;font-variant:normal;font-weight:900;font-stretch:normal;font-size:20.7582016px;font-family:'StratumNo2 Black';-inkscape-font-specification:'StratumNo2 Black, Heavy';fill:#414142;fill-opacity:1"
             id="path4543" />
          <path
             d="m 123.18939,-330.63483 0,-7.88811 c 0,-1.26625 -0.78881,-2.15886 -2.15886,-2.15886 -0.76805,0 -2.49098,0.53972 -3.38358,0.89261 l 0,-4.6706 -2.86463,0 0,13.82496 2.86463,0 0,-6.18594 c 0,-0.12455 0.083,-0.22834 0.20758,-0.26986 0.29061,-0.10379 2.0343,-0.68502 2.26264,-0.68502 0.12455,0 0.20759,0.083 0.20759,0.20758 l 0,6.93324 2.86463,0 z"
             style="font-style:normal;font-variant:normal;font-weight:900;font-stretch:normal;font-size:20.7582016px;font-family:'StratumNo2 Black';-inkscape-font-specification:'StratumNo2 Black, Heavy';fill:#414142;fill-opacity:1"
             id="path4545" />
          <path
             d="m 135.35661,-341.63667 0,2.44946 c 0,0.12455 -0.0415,0.20759 -0.18682,0.26986 -0.18682,0.083 -1.82672,0.76805 -3.4251,1.45308 -1.05867,0.45668 -1.72293,0.76805 -1.72293,1.95127 l 0,4.87817 8.26176,0 0,-2.61553 -5.39713,0 0,-1.57762 c 0,-0.12455 0.083,-0.20759 0.16606,-0.2491 0.2491,-0.12455 1.72293,-0.76806 3.94406,-1.78521 0.83033,-0.37364 1.22474,-0.85108 1.22474,-1.72293 l 0,-3.71572 c 0,-1.18321 -0.97564,-2.15885 -2.15886,-2.15885 l -3.88178,0 c -1.18322,0 -2.15885,0.97564 -2.15885,2.15885 l 0,1.86824 2.84387,0 0,-1.20397 c 0,-0.12455 0.083,-0.20759 0.20758,-0.20759 l 2.07582,0 c 0.12455,0 0.20758,0.083 0.20758,0.20759 z"
             style="font-style:normal;font-variant:normal;font-weight:900;font-stretch:normal;font-size:20.7582016px;font-family:'StratumNo2 Black';-inkscape-font-specification:'StratumNo2 Black, Heavy';fill:#414142;fill-opacity:1"
             id="path4547" />
          <path
             d="m 149.42387,-342.30094 c 0,-1.18321 -0.97564,-2.15885 -2.15886,-2.15885 l -4.21391,0 c -1.18322,0 -2.15886,0.97564 -2.15886,2.15885 l 0,9.50726 c 0,1.18322 0.97564,2.15885 2.15886,2.15885 l 4.21391,0 c 1.18322,0 2.15886,-0.97563 2.15886,-2.15885 l 0,-9.50726 z m -2.86464,0.66427 0,8.17873 c 0,0.12455 -0.083,0.20758 -0.20758,0.20758 l -2.38719,0 c -0.12455,0 -0.20758,-0.083 -0.20758,-0.20758 l 0,-8.17873 c 0,-0.12455 0.083,-0.20759 0.20758,-0.20759 l 2.38719,0 c 0.12455,0 0.20758,0.083 0.20758,0.20759 z"
             style="font-style:normal;font-variant:normal;font-weight:900;font-stretch:normal;font-size:20.7582016px;font-family:'StratumNo2 Black';-inkscape-font-specification:'StratumNo2 Black, Heavy';fill:#414142;fill-opacity:1"
             id="path4549" />
          <path
             d="m 154.3854,-344.45979 -3.36283,1.07943 0,2.86463 3.36283,-1.07943 0,10.96033 2.86463,0 0,-13.82496 -2.86463,0 z"
             style="font-style:normal;font-variant:normal;font-weight:900;font-stretch:normal;font-size:20.7582016px;font-family:'StratumNo2 Black';-inkscape-font-specification:'StratumNo2 Black, Heavy';fill:#414142;fill-opacity:1"
             id="path4551" />
          <path
             d="m 159.92395,-334.59964 0,1.80596 c 0,1.18322 0.97563,2.15885 2.15885,2.15885 l 3.98557,0 c 1.18322,0 2.15886,-0.97563 2.15886,-2.15885 l 0,-9.50726 c 0,-1.18321 -0.97564,-2.15885 -2.15886,-2.15885 l -4.04785,0 c -1.18321,0 -2.15885,0.97564 -2.15885,2.15885 l 0,3.71572 c 0,1.26625 0.78881,2.15886 2.15885,2.15886 0.76806,0 2.40796,-0.29062 3.34208,-0.58123 l 0,3.61192 c 0,0.12455 -0.083,0.20758 -0.20759,0.20758 l -2.22112,0 c -0.12455,0 -0.20759,-0.083 -0.20759,-0.20758 l 0,-1.20397 -2.80235,0 z m 2.80235,-4.69136 0,-2.40795 c 0,-0.12455 0.083,-0.20758 0.20759,-0.20758 l 2.22112,0 c 0.12455,0 0.20759,0.083 0.20759,0.20758 l 0,1.86824 c 0,0.16607 -0.083,0.2491 -0.20759,0.31137 -0.31137,0.14531 -1.99278,0.43593 -2.22112,0.43593 -0.12455,0 -0.20759,-0.083 -0.20759,-0.20759 z"
             style="font-style:normal;font-variant:normal;font-weight:900;font-stretch:normal;font-size:20.7582016px;font-family:'StratumNo2 Black';-inkscape-font-specification:'StratumNo2 Black, Heavy';fill:#414142;fill-opacity:1"
             id="path4553" />
        </g>
      </g>
    </g>
  </g>
</svg>
